<svg width="95" height="182" viewBox="0 0 95 182" fill="none" xmlns="http://www.w3.org/2000/svg">
<path d="M11.6015 160.294C11.0395 159.884 10.37 160.021 9.91947 159.548C9.13427 158.732 9.38227 155.513 9.48147 154.891C9.58067 154.273 9.97187 153.845 10.6551 153.607C14.8071 152.168 19.006 150.882 23.251 149.75C24.053 149.535 24.854 149.276 25.653 148.975C25.936 149.03 26.173 149.032 26.363 148.979C29.501 148.118 32.623 147.411 35.728 146.858C36.527 146.715 36.541 146.518 35.769 146.27L29.855 144.356C29.709 144.309 29.627 144.363 29.607 144.517C29.434 146.108 29.847 147.67 27.917 148.358C27.162 148.626 26.408 148.832 25.653 148.975C21.458 149.899 21.793 144.091 25.508 143.287C25.728 143.237 25.822 143.1 25.789 142.877C25.541 141.315 25.293 139.475 26.463 138.311C27.331 137.445 28.264 137.246 29.488 137.648C32.981 138.786 36.483 139.881 39.993 140.934C41.685 141.445 43.394 141.766 45.122 141.899C45.37 141.918 45.494 141.804 45.494 141.555C45.485 136.882 45.447 132.279 45.378 127.746C45.361 126.922 45.609 124.689 46.816 124.705C47.615 124.716 48.341 124.759 48.994 124.834C49.192 124.856 49.289 124.766 49.283 124.564L48.998 115.914C48.993 115.779 48.922 115.715 48.787 115.723C42.749 116.051 36.745 115.089 31.347 112.293C31.064 112.147 30.736 112.119 30.434 112.214C28.043 112.965 25.62 113.697 23.165 114.41C22.347 114.647 21.674 114.993 21.148 115.446C21.032 115.545 21.002 115.667 21.057 115.81C21.95 118.184 20.466 119.904 18.292 120.554C17.354 120.832 16.243 120.177 15.445 120.711C14.9986 121.01 14.5991 120.957 14.2465 120.554L13.577 119.788C13.4257 119.616 13.3475 119.392 13.3591 119.164C13.3707 118.935 13.4712 118.72 13.639 118.565C15.5979 116.763 16.4 116.287 18.784 115.558C19.299 115.4 19.781 115.12 20.231 114.716C22.718 112.488 26.475 112.359 29.521 111.597C29.741 111.542 29.747 111.471 29.537 111.386C28.087 110.785 26.417 109.774 24.805 109.621C23.074 109.459 19.759 109.293 18.065 108.2C18.005 108.16 17.956 108.106 17.923 108.043C17.889 107.98 17.871 107.91 17.871 107.839L17.879 106.393C17.879 106.247 17.809 106.154 17.668 106.116C13.3745 104.91 7.87387 102.727 6.63407 98.509C5.76627 95.556 5.30607 92.463 5.25377 89.229C5.19867 85.958 5.04717 81.386 4.79917 75.511C4.79367 75.365 4.71787 75.289 4.57187 75.283L1.17067 75.163C1.09397 75.159 1.01987 75.133 0.956969 75.089C0.894069 75.044 0.844869 74.982 0.815269 74.91C0.382769 73.85 0.316665 72.764 0.616965 71.654C0.674765 71.444 0.767067 71.306 0.893767 71.24C0.998467 71.184 1.11427 71.173 1.24097 71.206C1.36497 71.242 1.48477 71.23 1.60047 71.169C3.15167 70.376 4.78267 69.843 6.49357 69.57C6.63137 69.548 6.69057 69.468 6.67127 69.33C5.22487 58.8339 4.04017 48.8962 3.11717 39.5163C2.58817 34.1221 2.68327 28.2846 2.89817 22.7288C3.15437 16.1621 3.38577 11.6255 5.21247 6.26849C5.76077 4.65269 6.88897 3.66388 8.59707 3.30208C15.3802 1.86858 22.232 0.957183 29.153 0.567683C32.133 0.397883 36.274 0.190684 39.79 0.331584C43.353 0.472384 47.928 0.451685 50.37 2.45689C55.226 6.43839 53.151 16.3154 53.552 21.7635C53.946 27.1411 54.933 32.4111 56.511 37.5733C57.119 39.5619 58.264 41.1943 58.962 43.1581C61.247 49.5715 63.599 57.2982 63.826 64.337C63.832 64.47 63.9 64.536 64.033 64.536C72.368 64.569 80.187 67.059 88.234 69.798C97.334 72.893 93.656 81.274 91.436 87.443C90.723 89.432 90.165 91.46 89.763 93.529C89.735 93.675 89.779 93.797 89.895 93.894C92.511 96.04 92.387 99.694 91.655 102.685C90.837 106.016 87.899 108.021 84.998 109.26C76.716 112.794 68.347 114.228 59.462 115.185C59.379 115.195 59.303 115.238 59.252 115.303C59.2 115.368 59.176 115.45 59.185 115.533C59.441 117.867 59.49 120.205 59.33 122.547C59.31 122.806 59.175 122.968 58.925 123.032C56.869 123.537 54.788 123.659 52.68 123.396C52.648 123.393 52.615 123.399 52.586 123.413C52.557 123.427 52.532 123.449 52.515 123.477C52.498 123.505 52.489 123.537 52.489 123.569C52.489 123.602 52.498 123.634 52.515 123.661C52.851 124.203 53.339 124.526 53.978 124.631C54.138 124.656 54.234 124.748 54.267 124.908C54.377 125.414 54.428 125.915 54.42 126.412C54.346 131.522 54.326 136.666 54.362 141.845C54.362 141.861 54.366 141.876 54.373 141.89C54.38 141.904 54.39 141.916 54.402 141.926C54.415 141.935 54.429 141.942 54.444 141.945C54.459 141.949 54.475 141.948 54.49 141.944C59.458 140.635 64.399 139.203 69.314 137.648C70.099 137.4 70.889 137.387 71.525 137.992C73.1 139.488 72.674 141.435 72.434 143.374C72.412 143.542 72.485 143.631 72.653 143.639L74.641 143.722C74.76 143.727 74.866 143.767 74.959 143.842C76.398 144.981 76.232 147.177 75.261 148.528C74.53 149.547 71.662 148.399 70.637 148.142C70.59 148.129 70.56 148.145 70.546 148.192V148.196C70.532 148.243 70.549 148.275 70.595 148.292C72.298 148.866 73.603 149.206 74.509 149.311C75.72 149.448 76.84 149.609 78.022 150.044C81.747 151.417 85.495 152.723 89.267 153.963C90.024 154.212 90.429 154.729 90.482 155.513C90.589 157.035 90.519 158.541 90.271 160.033C90.246 160.185 90.31 160.246 90.461 160.215C91.961 159.934 93.238 159.917 93.404 161.835C93.61 164.246 93.536 165.713 91.779 167.316C91.675 167.413 91.552 167.448 91.412 167.42C90.894 167.31 90.615 166.967 90.577 166.393C90.566 166.23 90.483 166.174 90.329 166.227L88.858 166.732C88.728 166.776 88.626 166.857 88.552 166.973C88.442 167.138 88.239 167.192 87.944 167.134C83.948 166.326 86.097 161.711 86.357 159.291C86.367 159.202 86.35 159.112 86.308 159.033C86.266 158.954 86.201 158.889 86.122 158.848C85.378 158.47 84.572 158.162 83.704 157.924C75.353 155.626 66.883 153.914 58.292 152.787C56.766 152.585 55.171 152.588 53.507 152.795C53.371 152.812 53.247 152.879 53.157 152.983C53.068 153.086 53.02 153.218 53.023 153.354C53.131 159.325 53.738 164.371 54.796 171.087C54.821 171.238 54.769 171.357 54.639 171.443L52.73 172.727C52.687 172.756 52.651 172.795 52.627 172.841C52.602 172.887 52.588 172.938 52.588 172.99C52.587 173.042 52.599 173.094 52.622 173.14C52.645 173.187 52.679 173.227 52.722 173.258C53.435 173.774 53.826 174.455 53.895 175.3C54.028 176.938 54.041 178.679 53.937 180.524C53.904 181.071 53.614 181.331 53.069 181.303L52.87 181.295C52.729 181.288 52.596 181.226 52.499 181.123C52.402 181.021 52.348 180.885 52.35 180.744L52.366 178.875C52.366 178.816 52.343 178.759 52.301 178.717C52.259 178.675 52.202 178.652 52.143 178.652L49.705 178.648C49.584 178.648 49.523 178.708 49.523 178.83V180.872C49.523 180.994 49.464 181.071 49.345 181.104C48.599 181.306 48.159 181.031 48.027 180.28C47.586 177.791 47.802 175.402 48.676 173.113C48.707 173.03 48.764 172.958 48.837 172.908C48.91 172.858 48.996 172.831 49.085 172.831L51.845 172.843C51.914 172.843 51.958 172.811 51.978 172.748L52.031 172.578C52.076 172.432 52.022 172.367 51.87 172.383C50.396 172.563 48.991 172.37 47.655 171.803C46.423 171.281 46.638 169.628 46.626 168.568C46.587 164.944 46.552 161.319 46.518 157.692C46.505 156.198 46.39 154.885 46.175 153.752C46.125 153.491 45.993 153.252 45.798 153.072C45.603 152.891 45.356 152.778 45.093 152.75C43.619 152.581 42.198 152.587 40.832 152.766C30.587 154.113 22.698 156.072 13.5853 158.214C13.5301 158.227 13.478 158.251 13.4321 158.285C13.3862 158.318 13.3473 158.36 13.3177 158.409C13.2881 158.457 13.2684 158.511 13.2597 158.567C13.251 158.624 13.2535 158.681 13.267 158.736L13.4034 159.3C13.4392 159.438 13.4048 159.558 13.3001 159.66C12.818 160.127 12.2517 160.338 11.6015 160.294ZM38.728 8.94899C38.369 6.41759 37.604 3.47188 36.249 1.27608C36.18 1.16278 36.078 1.09928 35.943 1.08548C35.571 1.04408 35.202 1.03298 34.835 1.05228C29.262 1.32298 23.711 1.76358 18.185 2.37398C18.033 2.39048 17.99 2.46648 18.057 2.60178C19.065 4.66918 19.867 6.74898 20.338 9.08148C21.321 13.9731 21.875 18.9199 21.999 23.9219C22.002 24.0324 22.057 24.0917 22.164 24.1C27.975 24.6303 33.29 24.6759 39.03 23.5946C39.097 23.5811 39.158 23.5472 39.205 23.4977C39.252 23.4481 39.283 23.3851 39.294 23.317C39.985 18.8715 39.356 13.4027 38.728 8.94899ZM58.011 51.6057C57.943 51.5977 57.88 51.5647 57.833 51.5129C57.787 51.4611 57.761 51.394 57.759 51.324C57.724 47.8687 57.354 44.4369 56.652 41.0285C56.412 39.8726 55.829 38.6629 55.544 37.5194C54.218 32.2204 52.92 26.3373 52.895 20.2305C52.887 17.3 52.892 14.3709 52.912 11.4431C52.926 9.02908 52.351 6.77118 51.188 4.66928C50.274 3.01208 48.793 2.04808 46.746 1.77748C43.065 1.29128 39.847 1.05098 37.092 1.05658C36.91 1.05658 36.86 1.13669 36.943 1.29689C38.625 4.57399 39.257 7.25038 39.658 11.236C40.138 15.9756 40.844 21.0964 39.315 25.7905C39.268 25.9341 39.315 25.981 39.456 25.9313C41.328 25.2601 41.758 23.1845 43.485 22.1694C46.209 20.5702 50.461 19.3936 51.544 23.6734C52.414 27.1093 52.898 30.5922 52.994 34.1221C53.049 36.0527 53.164 37.5 53.337 38.464C54.048 42.3626 55.462 46.0209 57.04 49.8366C57.263 50.3752 57.263 51.0629 57.553 51.6305C57.836 52.1885 58.006 52.6028 58.061 52.8734C58.809 56.5856 59.776 60.559 60.028 64.097C60.295 67.842 60.182 71.612 59.689 75.407C59.687 75.424 59.689 75.442 59.696 75.458C59.702 75.474 59.712 75.488 59.725 75.499C59.738 75.51 59.754 75.518 59.771 75.521C59.788 75.525 59.805 75.524 59.822 75.519L62.578 74.687C62.666 74.662 62.717 74.604 62.731 74.512C63.673 67 63.085 59.581 60.966 52.2561C59.663 47.743 58.56 44.1703 57.656 41.5381C57.637 41.4801 57.598 41.4594 57.54 41.476H57.536C57.476 41.4925 57.452 41.5312 57.466 41.592C57.976 44.0474 58.294 46.5305 58.421 49.0411C58.462 49.8918 58.421 50.7177 58.297 51.5187C58.286 51.5988 58.239 51.6347 58.156 51.6264L58.011 51.6057ZM17.156 2.38658C12.6262 3.15298 10.1921 4.89718 9.69617 9.74038C9.17547 14.8612 9.18237 19.9889 9.71677 25.1235C9.73057 25.2727 9.79537 25.2989 9.91107 25.2022C12.0725 23.4166 18.445 23.9966 21.168 24.2038C21.309 24.212 21.383 24.1458 21.392 24.0049C21.43 23.1818 21.414 22.3615 21.342 21.5439C20.768 15.0725 20.301 8.46018 17.428 2.52738C17.373 2.41418 17.282 2.36718 17.156 2.38658ZM11.0517 4.06008C9.43167 4.82238 8.41787 6.04598 8.01007 7.73078C6.35697 14.571 6.63807 21.8088 6.74137 28.7484C6.74407 29.0799 6.87637 29.1434 7.13807 28.939L8.63407 27.7748C8.76217 27.6745 8.86487 27.5453 8.93387 27.3977C9.00277 27.2502 9.03597 27.0884 9.03087 26.9255C9.00327 25.9919 8.90546 24.3872 8.73736 22.1113C8.45366 18.1975 8.58727 13.8653 9.13827 9.11458C9.43167 6.59978 10.3244 4.61938 12.5601 3.36818C12.5625 3.36738 12.5647 3.36598 12.5665 3.36418C12.5682 3.36238 12.5696 3.36018 12.5704 3.35778C12.5712 3.35538 12.5714 3.35288 12.5711 3.35038C12.5707 3.34778 12.5698 3.34548 12.5684 3.34338L12.5147 3.25218C12.4761 3.19418 12.4279 3.18449 12.3701 3.22319C11.7033 3.67889 11.2639 3.95788 11.0517 4.06008ZM39.34 29.1254C39.516 29.0868 39.628 29.1544 39.675 29.3284C40.463 32.1567 41.041 35.0279 41.411 37.9418C41.43 38.0827 41.511 38.1462 41.654 38.1324C44.291 37.8617 46.908 37.4667 49.506 36.9475C50.465 36.7569 51.35 36.4047 52.16 35.891C52.213 35.8569 52.256 35.8096 52.286 35.7537C52.316 35.6979 52.33 35.6353 52.329 35.572C52.242 31.7397 51.907 27.7251 50.866 24.0212C50.271 21.9 49.329 21.175 47.13 21.5975C45.159 21.9746 43.675 22.3806 42.456 23.9508C41.34 25.3884 40.361 26.7929 38.299 26.7556C37.428 26.739 36.557 26.7363 35.687 26.7473C35.34 26.7556 35.212 26.9711 34.86 27.0001C30.719 27.337 26.515 27.3577 22.247 27.0622C22.041 27.0484 21.955 27.1437 21.991 27.3481C22.385 29.6323 22.747 31.9579 23.078 34.3249C23.309 35.9656 23.318 37.9418 23.512 39.7482C23.526 39.889 23.603 39.9581 23.743 39.9553C29.452 39.8863 35.114 39.3242 40.729 38.2691C40.913 38.236 40.985 38.1282 40.944 37.9459L39.071 29.3533C39.063 29.311 39.071 29.2671 39.094 29.2307C39.117 29.1943 39.154 29.1685 39.195 29.1586L39.34 29.1254ZM35.12 26.3869L35.265 26.5485C35.345 26.6396 35.419 26.6341 35.488 26.5319C35.621 26.3303 35.852 26.2143 36.183 26.1839C36.888 26.1231 37.483 26.0803 37.968 26.0555C38.29 26.0417 38.511 25.8828 38.629 25.579L39.005 24.6054C39.132 24.2767 39.023 24.1455 38.679 24.2118C32.372 25.4299 26.479 25.144 20.135 24.6427C17.201 24.4107 14.7299 24.5225 11.9817 24.8581C11.2433 24.9465 10.5862 25.2213 10.0104 25.6826C9.88917 25.7793 9.82847 25.9063 9.82847 26.0638L9.83267 27.2777C9.83267 27.4268 9.90427 27.4834 10.0476 27.4475C12.9983 26.7432 16.127 26.7018 19.152 26.5526C21.524 26.4325 24.049 26.5941 26.508 26.6272C29.145 26.6645 32.141 26.4656 34.968 26.3248C34.996 26.3235 35.024 26.3284 35.051 26.3391C35.077 26.3499 35.101 26.3662 35.12 26.3869ZM12.8207 57.721C12.9584 57.8176 13.0838 57.877 13.1968 57.8991C13.3483 57.9267 13.4268 57.8646 13.4323 57.7127C13.4378 57.5746 13.3731 57.4931 13.2381 57.4682C13.1196 57.4434 12.9805 57.5276 12.8207 57.721C12.5424 57.4641 12.6155 57.1794 13.0398 56.8673C13.0949 56.8259 13.1307 56.7707 13.1473 56.7016C13.161 56.6408 13.1638 56.5759 13.1555 56.5069C13.1445 56.4047 13.0894 56.3674 12.9902 56.395C12.7753 56.453 12.6224 56.4006 12.5315 56.2376C12.4075 56.0263 12.486 55.3386 12.3868 54.945C12.1279 53.9313 11.9075 52.7105 11.7256 51.2825C11.7036 51.1113 11.7752 51.0478 11.9405 51.0919C11.9956 51.1085 12.0535 51.114 12.1141 51.1085C12.2629 51.0975 12.3207 51.0201 12.2877 50.8765C12.2684 50.7936 12.2078 50.7384 12.1058 50.7108C11.9873 50.6804 11.8882 50.7039 11.8083 50.7812C11.687 50.9 11.6113 50.8751 11.581 50.7066L11.333 49.3353C11.322 49.2607 11.344 49.1986 11.3991 49.1489L12.1885 48.4653C12.199 48.4563 12.2116 48.4503 12.2251 48.4478C12.2387 48.4453 12.2527 48.4464 12.2656 48.451C12.2786 48.4556 12.2902 48.4636 12.2991 48.4741C12.308 48.4846 12.3141 48.4973 12.3166 48.5108L12.796 51.0049C12.8263 51.1541 12.9172 51.2314 13.0687 51.237C16.59 51.3557 19.37 51.2066 21.408 50.7895C22.629 50.5382 23.301 49.8615 23.425 48.7594C23.684 46.4918 23.529 43.8914 22.958 40.9581C22.933 40.8228 22.853 40.762 22.718 40.7758C19.879 41.0244 17.106 41.3683 14.2837 40.7965C14.1947 40.7794 14.1152 40.7295 14.0609 40.6567C14.0067 40.5839 13.9815 40.4934 13.9903 40.4029L14.0027 40.2704C14.0048 40.2438 14.0121 40.218 14.0243 40.1943C14.0365 40.1707 14.0533 40.1498 14.0738 40.1328C14.0942 40.1158 14.1178 40.1031 14.1432 40.0954C14.1687 40.0877 14.1953 40.0852 14.2217 40.0881C17.029 40.3311 19.835 40.3104 22.64 40.0259C22.772 40.0121 22.834 39.9389 22.826 39.8063C22.727 37.6602 22.657 35.5804 22.318 33.4261C21.993 31.3546 21.655 29.2775 21.305 27.195C21.283 27.0651 21.206 27.0044 21.074 27.0127C16.503 27.2902 12.8456 27.3027 10.1717 28.0236C10.0422 28.0595 9.95677 28.1409 9.91547 28.268C9.00627 31.1598 9.37407 34.6897 9.99397 37.6892C10.0216 37.8246 10.0767 37.9489 10.1593 38.0621C10.4031 38.4018 10.2668 38.7747 10.3164 39.0606C10.6525 41.0299 11.041 42.9923 11.4818 44.9478C11.4983 45.0279 11.4653 45.0694 11.3826 45.0721L11.2049 45.0804C11.0396 45.0887 10.9762 45.1729 11.0148 45.3331C11.0396 45.4381 11.0878 45.5279 11.1594 45.6024C11.2173 45.666 11.2848 45.6798 11.3619 45.6439C11.4226 45.619 11.4763 45.5845 11.5231 45.5403C11.6636 45.4077 11.7656 45.434 11.8289 45.619C11.873 45.7461 11.8758 45.8731 11.8372 46.0002C11.7959 46.1217 11.7201 46.2156 11.6099 46.2819C11.2958 46.4752 11.2228 46.7445 11.3909 47.0898C11.5038 47.3301 11.6085 47.3273 11.705 47.0815C11.727 47.0263 11.7614 46.9834 11.8083 46.9531C11.9323 46.8785 12.0135 46.9103 12.0521 47.0484C12.2725 47.8024 12.0548 48.2595 11.3991 48.4197C11.2751 48.4473 11.2008 48.399 11.176 48.2747C9.69227 40.9001 8.23347 35.0833 9.02697 28.4834C9.03037 28.4522 9.02597 28.4205 9.01417 28.3913C9.00237 28.3622 8.98356 28.3364 8.95936 28.3163C8.93526 28.2962 8.90657 28.2824 8.87577 28.2761C8.84497 28.2699 8.81317 28.2713 8.78317 28.2804C8.57377 28.3439 8.39187 28.453 8.23757 28.6077C8.19327 28.6523 8.16067 28.7071 8.14267 28.7671C8.12457 28.8271 8.12177 28.8905 8.13427 28.9516L8.20457 29.2955C8.21017 29.3218 8.20977 29.349 8.20337 29.3751C8.19707 29.4013 8.18487 29.4256 8.16777 29.4463C8.15067 29.4671 8.12907 29.4836 8.10467 29.4948C8.08027 29.506 8.05367 29.5115 8.02687 29.5109L7.07217 29.4736C7.02057 29.4721 6.96927 29.4817 6.92167 29.5016C6.87417 29.5216 6.83147 29.5514 6.79657 29.5892C6.76167 29.6269 6.73537 29.6716 6.71947 29.7203C6.70357 29.769 6.69837 29.8205 6.70437 29.8713C7.77887 39.8063 8.53927 48.022 10.523 59.3656C11.0892 62.605 11.4942 66.081 12.0232 69.491C12.0483 69.651 12.1145 69.802 12.2153 69.928C12.316 70.055 12.4478 70.153 12.5976 70.212C13.4737 70.564 14.5565 70.825 15.4037 71.331C15.8376 71.588 16.491 71.666 16.863 71.832C19.119 72.839 21.888 74.322 24.239 74.513C25.388 74.606 26.554 74.539 27.736 74.309C27.862 74.285 27.924 74.207 27.922 74.077C27.855 70.034 27.379 66.04 26.492 62.096C26.459 61.949 26.369 61.891 26.223 61.922C22.98 62.621 19.703 62.9 16.391 62.759C15.9575 62.738 15.4615 62.527 14.9863 62.473C14.8292 62.454 14.7659 62.521 14.7962 62.676C15.2453 64.988 15.6089 67.313 15.8872 69.653C15.9423 70.125 15.9533 70.51 15.9203 70.809C15.9145 70.867 15.8894 70.921 15.8488 70.963C15.8082 71.004 15.7547 71.031 15.6971 71.038C15.6394 71.045 15.581 71.033 15.5314 71.002C15.4819 70.972 15.4441 70.926 15.4244 70.871C15.2866 70.498 15.0662 70.178 14.7631 69.91C14.7475 69.895 14.7349 69.878 14.7262 69.858C14.7175 69.839 14.7128 69.818 14.7124 69.797C14.712 69.775 14.7159 69.754 14.7239 69.734C14.732 69.715 14.7439 69.697 14.759 69.682C14.8334 69.61 14.9147 69.595 15.0028 69.636C15.2177 69.738 15.237 69.655 15.0607 69.388L14.7259 68.886C14.716 68.87 14.7098 68.852 14.7079 68.834C14.7059 68.815 14.7083 68.796 14.7147 68.779C14.7211 68.762 14.7315 68.746 14.7449 68.734C14.7583 68.722 14.7745 68.713 14.792 68.708C14.8306 68.697 14.8692 68.692 14.9078 68.692C15.1006 68.686 15.1654 68.593 15.102 68.414L15.0193 68.17C14.978 68.045 14.8912 67.986 14.759 67.991L14.5069 68C14.4791 68.001 14.4516 67.993 14.4281 67.979C14.4047 67.964 14.3863 67.942 14.3755 67.916C14.3647 67.89 14.362 67.862 14.3678 67.835C14.3735 67.807 14.3875 67.783 14.4077 67.764C14.6171 67.559 14.7383 67.311 14.7714 67.018C14.7824 66.924 14.7424 66.893 14.6515 66.927C14.5909 66.949 14.562 66.992 14.5648 67.055C14.5652 67.089 14.5553 67.122 14.5364 67.15C14.5175 67.178 14.4905 67.2 14.4589 67.212C14.4274 67.224 14.393 67.226 14.3602 67.218C14.3274 67.21 14.2978 67.192 14.2755 67.167C14.1377 67.004 14.1047 66.866 14.1763 66.753C14.2011 66.717 14.2383 66.69 14.2879 66.674C14.3678 66.652 14.4463 66.648 14.5234 66.661C14.6557 66.689 14.7452 66.639 14.792 66.512C14.8168 66.446 14.8141 66.374 14.7838 66.297C14.7617 66.242 14.7094 66.185 14.6267 66.127C14.2823 65.892 14.1019 65.566 14.0854 65.149C14.0826 65.036 14.1294 64.95 14.2259 64.892L14.3788 64.797C14.3982 64.786 14.4143 64.77 14.4257 64.751C14.437 64.731 14.4432 64.709 14.4436 64.686C14.444 64.663 14.4387 64.641 14.428 64.62C14.4174 64.6 14.4019 64.582 14.3829 64.569L13.7754 64.163C13.7458 64.143 13.7232 64.114 13.7109 64.081C13.6985 64.047 13.6971 64.011 13.7067 63.976C13.7163 63.942 13.7365 63.911 13.7644 63.889C13.7924 63.867 13.8266 63.854 13.8622 63.852L14.2631 63.836C14.354 63.833 14.3953 63.786 14.3871 63.695C14.3843 63.654 14.3829 63.612 14.3829 63.571C14.3796 63.492 14.3486 63.417 14.2956 63.359C14.2425 63.301 14.1709 63.265 14.0936 63.256C13.9641 63.242 13.8388 63.202 13.7176 63.136C13.5523 63.045 13.5316 62.929 13.6556 62.788L13.9614 62.444C13.9839 62.418 14.0008 62.388 14.011 62.355C14.0212 62.323 14.0245 62.288 14.0206 62.254C14.0167 62.22 14.0057 62.188 13.9884 62.158C13.9711 62.129 13.9478 62.103 13.9201 62.083L13.5398 61.806C13.5084 61.783 13.4848 61.751 13.4722 61.714C13.4597 61.677 13.4587 61.637 13.4696 61.599C13.4804 61.562 13.5024 61.528 13.5327 61.504C13.5631 61.479 13.6002 61.465 13.639 61.462C13.7079 61.459 13.774 61.44 13.8374 61.404C13.864 61.388 13.8848 61.364 13.8967 61.335C13.9087 61.307 13.9111 61.275 13.9037 61.245C13.8963 61.215 13.8795 61.188 13.8556 61.168C13.8318 61.148 13.8022 61.136 13.7713 61.135C13.4875 61.126 13.3029 60.997 13.2175 60.745C13.1541 60.566 13.2175 60.481 13.4076 60.492C13.5178 60.498 13.6253 60.486 13.7299 60.455C13.8594 60.417 13.8994 60.334 13.8498 60.207C13.7396 59.9249 13.5316 59.7716 13.2258 59.7467C13.194 59.7441 13.1631 59.7346 13.1354 59.7188C13.1077 59.703 13.0838 59.6813 13.0653 59.6553C13.0468 59.6292 13.0342 59.5995 13.0283 59.568C13.0225 59.5366 13.0236 59.5043 13.0315 59.4733C13.0866 59.28 13.201 59.1267 13.3745 59.0134C13.5068 58.9333 13.5247 58.8325 13.4283 58.711C13.2754 58.5204 13.0481 58.4375 12.9448 58.2511C12.8538 58.0909 12.8124 57.9143 12.8207 57.721ZM51.151 37.1878C48.072 38.1366 45.159 38.3189 42.018 38.7953C41.891 38.8147 41.835 38.8879 41.849 39.0149L42.919 50.0851C42.922 50.1111 42.929 50.1364 42.942 50.1593C42.954 50.1823 42.971 50.2025 42.992 50.2187C43.012 50.235 43.036 50.2469 43.061 50.2538C43.086 50.2608 43.112 50.2626 43.138 50.2591L55.482 48.5273C55.527 48.5207 55.57 48.5039 55.607 48.4783C55.644 48.4526 55.675 48.4188 55.697 48.3795C55.719 48.3402 55.732 48.2964 55.734 48.2516C55.736 48.2068 55.728 48.1622 55.71 48.1213C54.123 44.5528 53.005 40.8406 52.358 36.9848C52.33 36.8164 52.234 36.7584 52.069 36.8108C51.755 36.9144 51.341 37.1257 51.151 37.1878ZM26.521 40.4652C25.644 40.4984 24.771 40.5591 23.9 40.6475C23.765 40.6613 23.708 40.7345 23.727 40.8671C24.091 43.3115 24.195 45.865 24.041 48.5275C23.983 49.4832 23.59 50.2386 22.863 50.7938C22.747 50.8822 22.758 50.9485 22.896 50.9926C23.792 51.2882 24.465 51.4456 24.917 51.465C30.683 51.7412 36.411 51.4249 42.101 50.5162C42.116 50.5141 42.131 50.5061 42.141 50.4938C42.151 50.4814 42.156 50.4657 42.154 50.4499C42.091 46.6411 41.734 42.8613 41.084 39.1104C41.074 39.0523 41.041 39.0006 40.993 38.9664C40.945 38.9323 40.886 38.9185 40.828 38.9281C36.072 39.7844 31.303 40.2967 26.521 40.4652ZM56.251 49.236C56.182 49.0482 56.05 48.9736 55.854 49.0122C51.664 49.8409 47.44 50.4361 43.183 50.7979C43.14 50.8013 43.098 50.8138 43.059 50.8345C43.021 50.8552 42.987 50.8837 42.96 50.9183C42.933 50.9529 42.913 50.9927 42.902 51.0355C42.89 51.0782 42.888 51.1228 42.894 51.1666L44.39 61.313C44.412 61.465 44.499 61.534 44.651 61.52C49.188 61.095 53.667 60.328 58.086 59.2207C58.196 59.192 58.292 59.1234 58.354 59.0282C58.416 58.9331 58.439 58.8184 58.421 58.7069C58.189 57.3397 57.901 56.0112 57.557 54.7213C57.16 53.2299 56.958 51.1418 56.251 49.236ZM25.384 61.404C25.365 61.495 25.399 61.532 25.487 61.516C30.141 60.72 34.625 61.445 39.278 61.781C40.683 61.883 42.09 61.815 43.497 61.578C43.638 61.553 43.699 61.47 43.679 61.329L42.295 51.3901C42.276 51.2658 42.205 51.2106 42.084 51.2244C35.666 51.966 30.434 52.5129 24.495 52.053C24.462 52.0504 24.429 52.0554 24.399 52.0677C24.368 52.0801 24.341 52.0993 24.319 52.1239C24.297 52.1485 24.282 52.1778 24.273 52.2094C24.265 52.241 24.265 52.274 24.272 52.3057C24.83 54.8413 25.892 58.9594 25.384 61.404ZM14.8622 62.025C17.883 62.257 21.603 62.32 24.57 61.566C24.705 61.532 24.785 61.447 24.81 61.309C24.934 60.574 24.942 59.831 24.834 59.0797C24.487 56.6519 24.055 54.2282 23.537 51.8087C23.498 51.6292 23.388 51.5435 23.206 51.5518L13.1968 52.0448C13.0618 52.0531 13.0067 52.1236 13.0315 52.2561L14.73 61.905C14.7438 61.98 14.7879 62.02 14.8622 62.025ZM13.1885 55.9312L12.6099 52.9731C12.4501 52.161 12.3606 52.1748 12.3413 53.0145C12.3386 53.2741 12.4088 53.5945 12.5521 53.9757C12.8042 54.6427 12.8083 55.3097 13.0025 55.9809C13.0191 56.0361 13.0549 56.0569 13.11 56.043H13.1141C13.1775 56.0292 13.2023 55.9919 13.1885 55.9312ZM56.028 70.502C55.482 71.476 54.676 71.588 53.42 71.853C51.133 72.328 48.816 72.721 46.469 73.034C46.334 73.053 46.273 73.13 46.287 73.266L46.977 79.294C46.991 79.412 47.057 79.465 47.176 79.451C50.958 78.979 54.627 78.049 58.181 76.663C58.594 76.5 58.841 76.202 58.921 75.768C59.631 71.927 59.495 67.946 59.429 64.06C59.407 62.872 59.186 61.462 58.768 59.8298C58.735 59.7027 58.655 59.6571 58.528 59.693C54.077 61.011 49.705 61.578 45.118 62.1C45.074 62.105 45.035 62.127 45.008 62.161C44.981 62.196 44.968 62.239 44.973 62.282L46.047 72.164C46.067 72.34 46.166 72.418 46.345 72.396C49.588 71.956 52.779 71.28 55.92 70.365C55.938 70.361 55.957 70.362 55.974 70.368C55.992 70.374 56.007 70.384 56.018 70.399C56.03 70.413 56.037 70.431 56.038 70.449C56.04 70.467 56.036 70.486 56.028 70.502ZM43.857 62.353C40.352 62.43 36.858 62.286 33.372 61.922C31.108 61.686 29.306 61.661 27.244 61.835C27.217 61.837 27.19 61.845 27.167 61.858C27.143 61.872 27.122 61.89 27.106 61.912C27.09 61.934 27.079 61.959 27.073 61.986C27.068 62.013 27.068 62.04 27.074 62.067C27.986 66.044 28.481 70.071 28.558 74.148C28.561 74.294 28.634 74.359 28.777 74.343L45.192 72.594C45.357 72.575 45.432 72.482 45.415 72.317L44.382 62.44C44.376 62.373 44.339 62.332 44.27 62.315C44.204 62.301 44.142 62.3 44.084 62.311C43.941 62.339 43.865 62.353 43.857 62.353ZM87.961 70.453C80.377 67.784 71.922 65.12 64.136 65.203C63.943 65.203 63.849 65.3 63.855 65.493L63.88 66.314C63.882 66.471 63.964 66.546 64.124 66.537C65.14 66.471 66.186 66.852 66.925 66.972C73.17 67.979 79.836 69.653 85.551 72.487C88.535 73.966 89.325 76.182 89.271 79.389C89.196 83.909 88.25 87.87 87.093 92.183C87.071 92.268 87.097 92.333 87.171 92.377L88.87 93.409C88.931 93.448 88.97 93.431 88.99 93.359C89.855 89.683 90.95 86.05 92.275 82.459C94.205 77.218 93.966 72.561 87.961 70.453ZM64.673 68.025C67.339 67.818 70.529 68.534 73.137 69.118C73.154 69.121 73.171 69.121 73.191 69.118C73.213 69.116 73.232 69.113 73.249 69.11C73.334 69.088 73.342 69.069 73.273 69.052C70.292 68.298 67.274 67.748 64.219 67.403C64.067 67.387 63.987 67.454 63.979 67.606L63.843 70.573C63.834 70.76 63.881 70.776 63.983 70.618C64.578 69.715 64.88 69.031 66.136 69.015C67.45 68.993 68.73 69.19 69.976 69.607C69.981 69.61 69.985 69.607 69.988 69.599L70.017 69.5C70.036 69.433 70.013 69.391 69.947 69.371C68.327 68.915 66.679 68.594 65.004 68.406C64.83 68.387 64.695 68.329 64.599 68.232C64.472 68.108 64.497 68.039 64.673 68.025ZM66.913 69.81C65.442 69.582 65.054 70.113 64.876 71.509C64.333 75.762 63.629 79.962 62.764 84.108C62.752 84.167 62.761 84.228 62.79 84.281C62.819 84.334 62.865 84.376 62.921 84.398C69.331 86.95 76.237 88.591 82.853 90.604C82.988 90.645 83.075 90.597 83.113 90.459C84.16 86.788 85.255 83.134 86.399 79.497C87.829 74.935 80.894 73.137 77.844 72.242C74.254 71.19 70.611 70.379 66.913 69.81ZM21.074 102.395C21.129 102.122 21.24 101.872 21.408 101.645C21.519 101.496 21.481 101.417 21.297 101.409C20.724 101.376 20.324 101.611 20.098 102.113C19.408 103.646 18.553 104.665 18.937 106.169C18.967 106.296 19.024 106.307 19.106 106.203L19.338 105.904C19.354 105.884 19.365 105.86 19.369 105.835C19.374 105.81 19.371 105.783 19.363 105.759C19.123 105.132 19.162 104.52 19.478 103.924C19.544 103.799 19.644 103.694 19.766 103.622C19.887 103.55 20.027 103.514 20.168 103.516C20.309 103.519 20.447 103.561 20.566 103.637C20.685 103.713 20.781 103.821 20.842 103.949C21.341 104.979 21.129 105.765 20.206 106.306C19.881 106.497 19.901 106.632 20.268 106.712L20.941 106.861C21.165 106.911 21.397 106.916 21.623 106.875C21.849 106.835 22.066 106.75 22.26 106.625C24.909 104.906 25.512 101.769 26.26 98.633C27.07 95.253 28.202 92.038 29.112 88.702C29.922 85.724 30.232 82.62 28.847 79.824C27.83 77.765 25.834 76.518 23.772 75.586C20.827 74.249 17.842 73.01 14.8167 71.869C10.7378 70.332 7.76217 69.702 3.86927 70.991C3.47797 71.121 3.48626 71.209 3.89406 71.256C10.0063 71.977 15.9821 75.088 21.053 78.461C26.058 81.788 26.334 85.326 24.789 90.944C24.784 90.961 24.776 90.978 24.765 90.992C24.753 91.007 24.739 91.019 24.723 91.027C24.707 91.036 24.689 91.042 24.671 91.044C24.652 91.046 24.633 91.044 24.615 91.039C24.577 91.031 24.538 91.021 24.5 91.01C24.472 91.003 24.448 90.987 24.431 90.965C24.414 90.944 24.405 90.917 24.404 90.89L24.4 89.539C24.4 89.52 24.382 89.51 24.347 89.51C24.308 89.51 24.287 89.528 24.285 89.564C23.851 93.74 23.02 97.096 22.028 100.804C21.99 100.951 22.039 101.057 22.177 101.123C23.995 102.01 22.189 103.344 21.404 103.978C21.264 104.088 21.148 104.067 21.057 103.916L20.111 102.333C20.088 102.295 20.078 102.251 20.082 102.206C20.087 102.162 20.105 102.121 20.135 102.088C20.164 102.055 20.203 102.032 20.247 102.024C20.29 102.015 20.335 102.02 20.375 102.039C20.662 102.171 20.844 102.392 20.921 102.702C20.935 102.765 20.969 102.822 21.017 102.866C21.065 102.91 21.125 102.938 21.189 102.946C21.6 102.999 21.932 102.79 22.185 102.321C22.218 102.26 22.222 102.202 22.198 102.146C22.129 102.003 22.056 102 21.979 102.138C21.833 102.395 21.614 102.559 21.322 102.631C21.288 102.64 21.254 102.639 21.221 102.631C21.188 102.622 21.157 102.605 21.133 102.582C21.108 102.558 21.09 102.529 21.079 102.496C21.069 102.463 21.067 102.429 21.074 102.395ZM12.2008 74.62C12.9667 75.048 13.7561 75.424 14.5688 75.747C14.8774 75.872 14.8912 75.845 14.6101 75.669C13.9462 75.251 13.143 74.902 12.2008 74.62C9.25417 72.918 5.97687 72.3 2.50127 71.699C2.23677 71.655 1.87997 71.731 1.43087 71.927C1.18567 72.032 1.06037 72.218 1.05487 72.486L1.03827 73.066C1.03277 73.326 1.14857 73.403 1.38547 73.298C2.37727 72.857 3.33197 72.687 4.24937 72.789C6.66837 73.06 9.31887 73.67 12.2008 74.62ZM63.21 75.254C62.32 75.539 61.407 75.808 60.47 76.062C59.276 76.385 58.491 77.346 57.292 77.752C53.967 78.89 50.543 79.679 47.022 80.118C46.882 80.135 46.813 80.213 46.816 80.354C46.86 82.906 46.566 85.416 45.936 87.882C45.897 88.031 45.955 88.1 46.109 88.089C46.668 88.051 47.115 87.991 47.448 87.911C51.077 87.07 54.821 86.424 58.325 85.135C59.477 84.71 60.659 84.351 61.871 84.058C61.998 84.028 62.072 83.946 62.094 83.814L63.995 73.063C63.998 73.051 63.994 73.046 63.983 73.046L63.875 73.029C63.815 73.021 63.782 73.035 63.776 73.071L63.537 74.861C63.526 74.951 63.489 75.036 63.431 75.106C63.373 75.175 63.296 75.227 63.21 75.254ZM45.659 73.319C45.655 73.282 45.644 73.246 45.626 73.213C45.608 73.181 45.584 73.152 45.554 73.129C45.525 73.106 45.491 73.089 45.455 73.08C45.419 73.071 45.381 73.069 45.345 73.075C39.873 73.912 34.377 74.532 28.855 74.935C28.729 74.943 28.667 75.012 28.669 75.142C28.68 75.841 28.722 76.537 28.793 77.23C28.963 78.838 29.893 80.346 30.422 81.916C30.471 82.063 30.572 82.123 30.723 82.098L46.142 79.666C46.188 79.659 46.23 79.635 46.258 79.598C46.287 79.561 46.3 79.514 46.295 79.468L45.659 73.319ZM24.88 75.354L28.107 77.363C28.218 77.435 28.267 77.404 28.256 77.272L28.091 75.258C28.077 75.093 27.988 75.015 27.822 75.026L24.917 75.209C24.9 75.21 24.885 75.216 24.872 75.227C24.859 75.237 24.85 75.252 24.846 75.268C24.842 75.284 24.843 75.301 24.849 75.316C24.855 75.332 24.866 75.345 24.88 75.354ZM7.27457 96.578C7.51427 95.683 8.96896 93.753 10.1385 94.672C10.2542 94.761 10.3754 94.768 10.5022 94.693C10.5518 94.663 10.5931 94.621 10.6262 94.569C10.6435 94.54 10.654 94.507 10.6568 94.474C10.6596 94.44 10.6545 94.406 10.642 94.375C10.6295 94.344 10.61 94.317 10.585 94.295C10.56 94.273 10.5302 94.258 10.498 94.25C9.90287 94.097 9.50617 93.798 9.30777 93.177C7.63817 87.923 8.16716 83.432 8.27466 76.489C8.27456 76.458 8.26446 76.429 8.24576 76.405C8.22696 76.381 8.20077 76.364 8.17127 76.356L5.61317 75.722C5.54157 75.706 5.50847 75.733 5.51397 75.805C5.74127 79.256 5.67937 82.881 5.85707 86.167C6.05127 89.68 6.08017 93.16 6.83237 96.566C6.84277 96.616 6.86977 96.661 6.90897 96.694C6.94817 96.727 6.99737 96.746 7.04857 96.747C7.09967 96.749 7.14987 96.733 7.19087 96.702C7.23187 96.672 7.26137 96.628 7.27457 96.578ZM14.953 78.73C14.9529 78.706 14.9459 78.682 14.9327 78.661C14.9195 78.641 14.9008 78.624 14.8786 78.614L12.6842 77.578C12.6647 77.569 12.6433 77.565 12.6219 77.567C12.6005 77.568 12.5798 77.575 12.5617 77.587C12.5436 77.598 12.5287 77.614 12.5183 77.633C12.5079 77.652 12.5025 77.673 12.5024 77.694L12.4982 83.735C12.4981 83.753 12.5018 83.771 12.509 83.787C12.5162 83.804 12.5268 83.818 12.54 83.83C12.5533 83.843 12.5689 83.852 12.5859 83.857C12.6029 83.863 12.6209 83.865 12.6387 83.863L14.8084 83.677C14.8395 83.674 14.8684 83.66 14.8897 83.637C14.911 83.614 14.9232 83.584 14.9241 83.553L14.953 78.73ZM15.8498 79.111C15.8305 79.099 15.808 79.091 15.7849 79.09C15.7618 79.089 15.7389 79.095 15.7185 79.106C15.6982 79.117 15.6812 79.133 15.6694 79.153C15.6576 79.173 15.6514 79.196 15.6515 79.219L15.5977 83.379C15.5976 83.397 15.6013 83.414 15.6085 83.431C15.6157 83.447 15.6263 83.462 15.6395 83.474C15.6528 83.486 15.6684 83.495 15.6854 83.501C15.7024 83.507 15.7204 83.509 15.7382 83.507L21.631 82.977C21.658 82.974 21.683 82.964 21.704 82.946C21.724 82.929 21.738 82.906 21.745 82.879C21.751 82.853 21.749 82.826 21.739 82.801C21.729 82.776 21.712 82.755 21.689 82.741L15.8498 79.111ZM45.254 88.044C45.717 85.492 46.176 83.184 46.2 80.673C46.203 80.416 46.078 80.307 45.824 80.346L30.707 82.741C30.561 82.763 30.489 82.847 30.492 82.993C30.546 85.463 30.248 86.904 29.579 89.668C29.537 89.836 29.604 89.922 29.777 89.925C34.844 89.987 40.299 89.146 44.969 88.326C45.129 88.298 45.224 88.204 45.254 88.044ZM22.871 84.108C22.818 83.945 22.71 83.805 22.566 83.711C22.421 83.618 22.249 83.577 22.078 83.594L12.8703 84.568C12.6967 84.587 12.5948 84.682 12.5644 84.854C12.2283 86.765 12.2187 88.712 12.5355 90.695C12.5658 90.889 12.5755 91.097 12.5644 91.321C12.5562 91.467 12.6237 91.527 12.7669 91.499C16.383 90.782 19.449 89.974 23.218 90.215C23.342 90.223 23.413 90.165 23.429 90.041C23.685 88.013 23.499 86.036 22.871 84.108ZM57.433 86.159C57.04 86.3 56.474 86.308 56.032 86.478C56.004 86.488 55.98 86.509 55.966 86.535C55.951 86.561 55.946 86.591 55.951 86.621C55.956 86.651 55.972 86.677 55.995 86.697C56.018 86.716 56.047 86.726 56.077 86.726C57.788 86.746 59.112 86.922 60.049 87.257C63.458 88.466 66.554 89.552 70.306 90.654C73.185 91.496 76.037 92.429 78.861 93.45C79.976 93.852 80.91 94.611 81.923 95.046C85.237 96.475 87.597 97.482 88.287 101.434C88.541 102.898 88.627 104.416 88.548 105.987C88.534 106.219 88.615 106.261 88.791 106.112C90.108 104.987 90.922 103.504 91.234 101.662C91.527 99.914 91.589 96.831 90.403 95.46C88.523 93.281 84.167 91.831 81.41 90.981C74.852 88.959 68.169 87.207 61.706 84.912C61.378 84.796 61.053 84.801 60.731 84.928C59.67 85.345 58.571 85.755 57.433 86.159ZM64.359 89.456C60.499 87.952 56.912 86.672 52.891 87.658C52.649 87.716 52.611 87.836 52.779 88.019C53.263 88.557 54.949 88.86 55.676 89.187C57.011 89.792 57.825 90.873 59.755 90.716C61.256 90.592 62.975 90.534 64.334 90.123C64.985 89.927 64.993 89.705 64.359 89.456ZM44.163 94.341C44.165 94.609 44.058 94.811 43.84 94.946C43.518 95.148 43.532 95.322 43.882 95.468C47.415 96.926 49.982 97.888 53.635 100.522C54.048 100.821 54.3 101.173 54.606 101.575C54.694 101.688 54.808 101.736 54.949 101.72C60.054 101.043 65.093 100.035 70.066 98.695C70.342 98.621 70.358 98.506 70.116 98.352C68.095 97.059 65.665 95.63 63.144 96.089C61.519 96.385 58.453 97 53.949 97.933C53.263 98.074 52.57 98.131 51.87 98.103C51.765 98.097 51.72 98.044 51.734 97.941C51.739 97.897 51.757 97.856 51.787 97.817C51.826 97.767 51.898 97.73 52.002 97.705C55.711 96.849 59.454 96.116 63.231 95.505C63.509 95.458 63.523 95.37 63.272 95.24C61.28 94.18 56.478 92.116 54.156 92.56C51.103 93.14 48.065 93.855 45.043 94.706C44.965 94.728 44.882 94.725 44.806 94.697C44.73 94.669 44.665 94.617 44.621 94.548L44.493 94.354C44.386 94.188 44.429 94.081 44.621 94.035L56.552 91.226C57.181 91.076 57.201 90.868 56.614 90.6C55.058 89.885 53.52 89.031 52.002 88.04C51.651 87.812 51.312 87.832 50.944 87.907C46.115 88.899 41.245 89.706 36.335 90.331C36.121 90.356 36.104 90.426 36.286 90.542L41.448 93.782C41.891 94.061 41.87 94.235 41.386 94.304C41.179 94.334 40.862 94.211 40.435 93.935C38.694 92.805 36.94 91.68 35.174 90.559C35.05 90.481 34.915 90.444 34.769 90.447L29.525 90.604C29.379 90.607 29.285 90.679 29.244 90.82L28.504 93.235C28.452 93.409 28.514 93.517 28.69 93.558C30.271 93.92 31.81 94.417 33.306 95.05C34.505 95.559 35.538 95.547 36.707 95.294C38.694 94.869 40.53 94.615 42.216 94.532C42.787 94.503 43.427 94.287 44.039 94.233C44.119 94.225 44.16 94.261 44.163 94.341ZM64.458 90.745C62.268 91.656 58.739 91.354 56.102 91.748C56.075 91.753 56.057 91.77 56.048 91.797C56.043 91.825 56.04 91.859 56.04 91.901C56.04 91.915 56.046 91.922 56.057 91.922C57.36 92.101 58.331 92.318 58.97 92.572C62.133 93.832 66.078 95.636 70.806 97.987C72.195 98.675 77.832 96.168 79.489 95.418C79.536 95.398 79.578 95.367 79.612 95.328C79.645 95.289 79.67 95.243 79.684 95.193C79.699 95.144 79.702 95.091 79.694 95.04C79.686 94.989 79.666 94.94 79.638 94.896C79.395 94.521 79 94.235 78.452 94.039C74.572 92.655 70.634 91.464 66.636 90.467C66.014 90.31 65.288 90.402 64.458 90.745ZM15.7921 91.797C17.974 93.011 20.379 93.732 22.656 94.722C22.678 94.731 22.701 94.734 22.723 94.733C22.746 94.731 22.768 94.725 22.788 94.714C22.807 94.702 22.824 94.687 22.836 94.668C22.849 94.65 22.856 94.628 22.859 94.606L23.347 91.159C23.369 90.999 23.298 90.918 23.136 90.915C20.676 90.86 18.24 91.078 15.8293 91.569C15.6144 91.614 15.602 91.69 15.7921 91.797ZM22.206 95.269C19.797 94.466 17.416 93.612 15.3128 92.319C14.6048 91.883 13.7603 91.853 12.7795 92.228C12.6721 92.27 12.6252 92.348 12.639 92.464L12.7754 93.488C12.7974 93.654 12.887 93.768 13.044 93.832L21.876 97.287C21.92 97.305 21.969 97.313 22.017 97.31C22.065 97.307 22.112 97.293 22.154 97.27C22.197 97.246 22.233 97.214 22.261 97.174C22.29 97.135 22.309 97.09 22.318 97.043L22.541 95.841C22.593 95.554 22.482 95.363 22.206 95.269ZM53.494 101.492C50.176 98.584 46.27 97.337 42.476 95.427C41.992 95.183 41.442 95.108 40.914 95.215C38.588 95.684 35.662 96.636 33.244 95.771C31.696 95.218 30.152 94.669 28.611 94.122C28.576 94.109 28.538 94.103 28.501 94.105C28.463 94.107 28.426 94.117 28.391 94.133C28.357 94.15 28.327 94.173 28.301 94.202C28.276 94.23 28.256 94.264 28.244 94.3L27.772 95.733C27.72 95.896 27.777 95.997 27.942 96.036C29.003 96.279 29.793 96.619 30.314 97.055C37.145 102.781 45.212 102.428 53.337 101.948C53.759 101.923 53.811 101.771 53.494 101.492ZM66.475 113.66C72.633 112.768 78.647 111.104 84.518 108.668C85.7 108.176 86.748 107.615 87.663 106.985C87.779 106.905 87.841 106.794 87.849 106.65C87.998 103.717 87.866 99.424 85.274 97.581C84.175 96.796 82.554 96.06 80.41 95.373C80.286 95.334 80.176 95.356 80.08 95.439C79.27 96.129 78.511 96.609 77.802 96.876C71.507 99.274 64.553 101.008 56.941 102.08C50.954 102.925 45.67 103.077 41.088 102.536C37.087 102.064 33.455 100.528 30.19 97.929C29.576 97.44 28.763 97.019 27.752 96.665C27.617 96.618 27.533 96.665 27.5 96.806L27.264 97.813C27.246 97.888 27.252 97.967 27.282 98.039C27.312 98.11 27.363 98.17 27.429 98.211C29.262 99.324 31.555 100.826 34.31 102.718C38.46 105.564 39.889 108.999 40.505 113.817C40.522 113.944 40.578 114.063 40.664 114.156C40.751 114.25 40.864 114.314 40.989 114.339C42.804 114.712 44.61 114.919 46.407 114.961C53.073 115.114 60.069 114.588 66.475 113.66ZM20.168 104.4C19.846 104.588 19.752 104.869 19.887 105.242C19.905 105.294 19.937 105.34 19.979 105.376C20.021 105.412 20.072 105.436 20.127 105.445C20.182 105.454 20.238 105.449 20.291 105.429C20.343 105.409 20.389 105.376 20.425 105.333C20.598 105.12 20.649 104.867 20.578 104.575C20.567 104.532 20.548 104.493 20.52 104.46C20.492 104.427 20.456 104.401 20.417 104.384C20.377 104.368 20.334 104.36 20.291 104.363C20.248 104.366 20.206 104.379 20.168 104.4ZM52.411 124.449C51.415 121.822 51.709 118.454 51.82 115.711C51.826 115.595 51.771 115.54 51.655 115.545L49.911 115.62C49.76 115.628 49.687 115.707 49.692 115.856L50.01 124.552C50.012 124.609 50.037 124.662 50.078 124.701C50.119 124.739 50.173 124.761 50.229 124.759L52.246 124.701C52.42 124.696 52.475 124.612 52.411 124.449ZM53.92 116.448L56.602 116.386C56.663 116.386 56.7 116.356 56.714 116.295C56.727 116.243 56.741 116.192 56.755 116.142C56.761 116.115 56.762 116.087 56.756 116.06C56.75 116.033 56.738 116.008 56.722 115.986C56.705 115.965 56.683 115.948 56.659 115.936C56.635 115.924 56.608 115.918 56.581 115.918H53.99C53.88 115.918 53.777 115.892 53.68 115.839C53.644 115.82 53.607 115.803 53.569 115.79C53.318 115.704 53.202 115.795 53.222 116.063L53.255 116.519C53.274 116.787 53.38 116.827 53.573 116.639L53.651 116.56C53.726 116.488 53.815 116.451 53.92 116.448ZM53.482 119.683C53.482 119.643 53.471 119.604 53.45 119.567C53.429 119.53 53.397 119.496 53.357 119.468C53.318 119.44 53.271 119.417 53.218 119.401C53.166 119.386 53.111 119.378 53.054 119.377C52.94 119.376 52.831 119.408 52.75 119.464C52.669 119.52 52.623 119.596 52.622 119.677C52.622 119.716 52.633 119.756 52.654 119.793C52.675 119.829 52.707 119.863 52.747 119.891C52.786 119.92 52.834 119.942 52.886 119.958C52.938 119.974 52.993 119.982 53.05 119.982C53.164 119.983 53.273 119.952 53.354 119.896C53.435 119.84 53.481 119.763 53.482 119.683ZM53.676 119.729C53.621 119.939 53.665 120.108 53.809 120.235C53.833 120.256 53.861 120.272 53.892 120.281C53.922 120.291 53.955 120.293 53.986 120.289C54.018 120.285 54.049 120.274 54.076 120.256C54.103 120.239 54.126 120.216 54.143 120.189C54.273 119.988 54.289 119.774 54.193 119.547C54.184 119.524 54.17 119.502 54.153 119.484C54.135 119.466 54.114 119.451 54.091 119.441C54.068 119.431 54.043 119.426 54.018 119.426C53.993 119.425 53.968 119.43 53.945 119.439C53.804 119.492 53.715 119.589 53.676 119.729ZM54.631 119.58L54.627 121.527C54.624 121.55 54.634 121.559 54.656 121.556L54.838 121.544C54.855 121.543 54.871 121.538 54.886 121.529C54.902 121.521 54.915 121.51 54.925 121.496C54.936 121.482 54.943 121.467 54.947 121.45C54.952 121.433 54.952 121.416 54.949 121.399C54.842 120.791 54.853 120.188 54.982 119.589C54.985 119.576 54.984 119.563 54.981 119.55C54.978 119.538 54.973 119.526 54.965 119.516C54.957 119.506 54.947 119.498 54.936 119.491C54.925 119.485 54.912 119.482 54.9 119.481L54.751 119.468C54.671 119.463 54.631 119.5 54.631 119.58ZM53.581 121.01L53.73 121.229C53.749 121.258 53.776 121.281 53.808 121.296C53.839 121.31 53.874 121.316 53.909 121.313C53.944 121.31 53.977 121.297 54.005 121.276C54.033 121.256 54.055 121.228 54.069 121.196C54.104 121.113 54.113 121.025 54.093 120.931C54.069 120.807 53.986 120.702 53.845 120.616C53.515 120.42 53.146 120.356 52.738 120.425C52.427 120.478 52.42 120.558 52.717 120.666L53.507 120.952C53.538 120.962 53.565 120.983 53.581 121.01ZM56.718 122.481L56.66 120.496C56.659 120.488 56.655 120.481 56.649 120.475C56.643 120.47 56.635 120.467 56.627 120.467L56.515 120.475C56.477 120.478 56.456 120.499 56.453 120.538L56.379 122.506C56.376 122.566 56.404 122.598 56.462 122.601L56.59 122.605C56.678 122.611 56.721 122.569 56.718 122.481ZM55.634 121.606C55.668 121.607 55.703 121.594 55.735 121.568C55.768 121.542 55.798 121.503 55.824 121.453C55.851 121.403 55.872 121.344 55.888 121.278C55.904 121.212 55.913 121.142 55.916 121.07C55.922 120.925 55.9 120.785 55.855 120.68C55.811 120.576 55.747 120.516 55.678 120.513C55.644 120.512 55.609 120.524 55.577 120.551C55.544 120.577 55.514 120.616 55.487 120.666C55.461 120.715 55.44 120.775 55.424 120.841C55.408 120.906 55.399 120.977 55.396 121.049C55.39 121.194 55.412 121.334 55.456 121.438C55.501 121.543 55.565 121.603 55.634 121.606ZM52.833 121.271C52.547 121.564 52.421 121.921 52.457 122.344C52.471 122.485 52.548 122.568 52.688 122.592C53.016 122.648 53.22 122.505 53.3 122.166C53.372 121.865 53.384 121.613 53.337 121.412C53.325 121.359 53.3 121.311 53.263 121.272C53.226 121.233 53.179 121.205 53.127 121.191C53.075 121.176 53.021 121.176 52.969 121.19C52.917 121.204 52.87 121.232 52.833 121.271ZM53.821 122.074C53.749 122.293 53.738 122.516 53.788 122.746C53.792 122.765 53.801 122.783 53.815 122.797C53.829 122.812 53.847 122.822 53.867 122.826C53.886 122.831 53.907 122.83 53.927 122.824C53.947 122.818 53.964 122.806 53.978 122.791C54.141 122.601 54.163 122.359 54.044 122.066C53.964 121.862 53.89 121.864 53.821 122.074ZM54.937 122.083C54.934 122.049 54.92 122.018 54.897 121.994C54.875 121.969 54.845 121.952 54.812 121.946C54.78 121.94 54.746 121.945 54.716 121.96C54.686 121.975 54.662 121.999 54.647 122.029C54.545 122.242 54.511 122.465 54.544 122.7C54.549 122.735 54.564 122.767 54.589 122.791C54.614 122.815 54.646 122.83 54.681 122.834C54.716 122.838 54.752 122.83 54.782 122.812C54.813 122.794 54.836 122.766 54.85 122.733C54.93 122.529 54.959 122.312 54.937 122.083ZM55.604 122.8C55.63 122.8 55.657 122.788 55.681 122.765C55.706 122.742 55.728 122.708 55.746 122.666C55.765 122.623 55.78 122.573 55.79 122.518C55.8 122.462 55.805 122.403 55.805 122.343C55.804 122.222 55.783 122.106 55.744 122.021C55.706 121.936 55.654 121.888 55.601 121.888C55.574 121.888 55.548 121.9 55.523 121.923C55.499 121.946 55.477 121.98 55.458 122.022C55.439 122.064 55.424 122.115 55.414 122.17C55.404 122.225 55.399 122.285 55.4 122.345C55.4 122.465 55.422 122.581 55.46 122.667C55.498 122.752 55.55 122.8 55.604 122.8ZM46.275 125.696L46.109 127.634C46.098 127.77 46.158 127.853 46.287 127.883C48.689 128.46 51.11 128.538 53.548 128.115C53.623 128.104 53.658 128.061 53.656 127.987L53.594 125.592C53.591 125.528 53.559 125.504 53.499 125.517C51.165 126.039 48.829 126.045 46.49 125.534C46.36 125.506 46.288 125.56 46.275 125.696ZM44.076 143.125C43.005 143.888 42.596 143.999 42.315 145.408C42.286 145.542 42.21 145.66 42.1 145.739C40.328 147.016 37.393 147.169 35.343 147.608C27.362 149.315 19.489 151.431 11.7253 153.955C11.7005 153.963 11.4732 154.023 11.0434 154.133C9.29527 154.577 10.0309 157.468 10.1549 158.757C10.1578 158.788 10.1681 158.817 10.185 158.843C10.2018 158.869 10.2247 158.89 10.2517 158.906C10.2787 158.921 10.3092 158.93 10.3405 158.931C10.3718 158.933 10.4031 158.927 10.4318 158.914C10.9994 158.649 11.5889 158.541 12.2006 158.591C12.3411 158.602 12.4568 158.554 12.5477 158.446C13.4114 157.394 14.2132 157.39 15.4282 157.091C24.173 154.945 31.488 153.408 40.526 152.169C42.51 151.9 46.634 151.134 46.903 154.324C47.353 159.664 46.853 165.013 47.407 170.32C47.436 170.61 47.561 170.881 47.761 171.093C47.962 171.304 48.226 171.443 48.514 171.488C50.041 171.731 51.568 171.806 53.097 171.712C53.242 171.703 53.383 171.664 53.511 171.597C53.64 171.53 53.752 171.437 53.842 171.323C53.932 171.21 53.998 171.079 54.034 170.939C54.07 170.799 54.076 170.653 54.052 170.511C53.139 165.009 52.254 159.254 52.32 153.578C52.329 152.812 52.664 152.211 53.432 152.103C55.118 151.874 56.978 151.903 59.011 152.19C66.913 153.301 74.443 154.804 82.212 156.864C85.064 157.622 86.568 157.895 88.295 159.594C88.397 159.693 88.524 159.762 88.662 159.794C88.801 159.826 88.945 159.82 89.079 159.776C89.214 159.732 89.334 159.652 89.426 159.545C89.518 159.437 89.578 159.307 89.601 159.167L89.928 157.241C89.953 157.083 89.891 156.978 89.742 156.926C79.079 153.122 68.335 150.608 57.251 148.408C53.159 147.596 49.262 148.221 45.163 148.055C42.282 147.935 39.703 149.124 36.93 149.65C28.165 151.312 19.507 153.483 10.8533 155.877C10.6494 155.935 10.5089 155.866 10.4318 155.67L10.3822 155.546C10.3727 155.523 10.3683 155.498 10.3692 155.473C10.3702 155.448 10.3766 155.423 10.3879 155.4C10.3992 155.378 10.4152 155.357 10.4349 155.341C10.4546 155.325 10.4774 155.313 10.502 155.306C12.921 154.654 15.1844 154.035 17.292 153.45C22.226 152.082 27.388 151.014 32.426 149.725C34.868 149.104 37.302 148.925 39.749 148.184C41.423 147.674 43.129 147.061 44.919 147.144C48.214 147.301 50.329 147.33 51.263 147.231C53.434 147.004 55.595 147.123 57.747 147.587C57.794 147.598 57.821 147.579 57.829 147.529L57.85 147.422C57.861 147.344 57.829 147.3 57.755 147.289C56.096 147.046 54.533 146.536 53.064 145.76C52.962 145.705 52.848 145.673 52.721 145.665C52.407 145.64 52.135 145.553 51.82 145.586C49.66 145.813 47.455 145.622 45.204 145.014C45.101 144.987 45.005 144.935 44.925 144.863C44.845 144.792 44.783 144.703 44.744 144.603C44.704 144.503 44.689 144.395 44.698 144.288C44.708 144.181 44.742 144.078 44.799 143.987L45.113 143.473C45.248 143.255 45.376 143.261 45.497 143.49L45.741 143.954C45.813 144.088 45.929 144.192 46.068 144.248C47.677 144.88 49.335 145.093 51.043 144.886C52.506 144.708 53.61 144.546 53.622 142.839C53.658 138.265 53.659 133.683 53.626 129.093C53.624 128.949 53.552 128.888 53.412 128.91C51.037 129.314 48.675 129.249 46.328 128.716C46.182 128.683 46.11 128.741 46.113 128.89C46.155 133.105 46.168 137.319 46.155 141.534C46.155 141.96 46.105 142.391 46.006 142.827C45.975 142.965 45.89 143.034 45.75 143.034C45.661 143.034 45.582 142.995 45.51 142.918C45.416 142.816 45.3 142.755 45.163 142.736C39.852 142.031 34.472 139.997 29.351 138.406C28.219 138.054 27.343 138.178 26.582 139.048C26.467 139.181 26.495 139.254 26.669 139.268C27.487 139.339 28.244 139.434 29.037 139.678C33.404 141.015 37.764 142.391 42.117 143.805C42.249 143.849 42.37 143.83 42.481 143.747C42.916 143.432 43.382 143.168 43.877 142.955C43.894 142.95 43.912 142.95 43.931 142.955C43.973 142.969 44.014 142.983 44.055 142.997C44.068 143 44.079 143.007 44.088 143.017C44.097 143.027 44.103 143.039 44.105 143.052C44.107 143.066 44.106 143.08 44.1 143.092C44.095 143.105 44.087 143.117 44.076 143.125ZM71.083 138.468L70.992 138.385C70.771 138.181 70.517 138.12 70.227 138.203L55.011 142.582C54.832 142.635 54.821 142.711 54.978 142.81L55.763 143.295C55.874 143.365 55.999 143.411 56.128 143.433C56.258 143.454 56.391 143.449 56.519 143.419C61.421 142.254 66.237 140.801 70.967 139.061C71.024 139.04 71.075 139.005 71.114 138.959C71.154 138.913 71.18 138.857 71.192 138.797C71.204 138.738 71.2 138.676 71.181 138.618C71.161 138.561 71.128 138.509 71.083 138.468ZM71.534 142.777C71.547 142.808 71.538 142.83 71.505 142.844L69.769 143.594C69.739 143.603 69.714 143.623 69.699 143.65C69.684 143.677 69.68 143.71 69.688 143.74C69.696 143.77 69.715 143.796 69.742 143.812C69.769 143.828 69.801 143.833 69.831 143.826L71.368 143.631C71.512 143.614 71.604 143.536 71.645 143.395C72.023 142.174 72.123 140.931 71.947 139.666C71.941 139.623 71.924 139.583 71.899 139.548C71.873 139.514 71.838 139.486 71.799 139.469C71.76 139.452 71.717 139.445 71.674 139.449C71.631 139.453 71.59 139.467 71.554 139.492C71.111 139.796 70.615 140.039 70.067 140.221C65.895 141.599 61.685 142.857 57.437 143.995C57.269 144.04 57.213 144.146 57.268 144.314L57.445 144.865C57.495 145.02 57.596 145.126 57.747 145.184C59.351 145.814 60.747 146.129 62.475 145.508C65.387 144.466 68.313 143.482 71.253 142.554C71.374 142.515 71.456 142.556 71.501 142.678L71.534 142.777ZM26.996 143.324C28.988 142.91 33.079 144.534 36.922 145.706C37.019 145.734 37.064 145.799 37.059 145.901L37.05 146.017C37.042 146.169 37.114 146.242 37.265 146.237C38.88 146.176 40.318 145.652 41.58 144.666C41.608 144.645 41.63 144.617 41.643 144.584C41.656 144.551 41.66 144.515 41.654 144.481C41.648 144.446 41.632 144.413 41.609 144.387C41.586 144.36 41.556 144.341 41.522 144.331C36.97 142.825 32.356 141.42 27.677 140.113C27.336 140.019 26.917 139.985 26.421 140.01C26.25 140.018 26.175 140.106 26.194 140.275L26.586 143.693C26.597 143.781 26.647 143.82 26.735 143.809C26.785 143.803 26.836 143.795 26.888 143.784C26.993 143.759 27.023 143.697 26.979 143.597L26.925 143.465C26.892 143.387 26.916 143.341 26.996 143.324ZM27.95 144.534C27.771 144.086 27.543 143.939 27.264 144.09C27.118 144.171 27.058 144.336 27.083 144.588C27.094 144.723 27.168 144.789 27.306 144.786L27.793 144.774C27.822 144.773 27.849 144.766 27.874 144.752C27.899 144.739 27.92 144.719 27.935 144.695C27.951 144.672 27.96 144.645 27.963 144.616C27.965 144.588 27.961 144.56 27.95 144.534ZM70.318 148.06C68.748 147.422 68.703 146.125 68.996 144.667C69.008 144.604 69.004 144.539 68.984 144.478C68.964 144.418 68.929 144.363 68.881 144.321C68.834 144.278 68.777 144.249 68.715 144.237C68.653 144.224 68.589 144.228 68.529 144.248L62.541 146.245C62.525 146.25 62.511 146.26 62.501 146.274C62.491 146.287 62.486 146.304 62.487 146.321C62.488 146.338 62.495 146.354 62.506 146.366C62.517 146.379 62.532 146.387 62.549 146.39C65.114 146.876 67.656 147.455 70.174 148.126C70.281 148.154 70.339 148.155 70.347 148.13V148.126C70.361 148.096 70.351 148.074 70.318 148.06ZM61.384 148.039L60.999 148.072C60.972 148.076 60.948 148.088 60.929 148.108C60.911 148.128 60.9 148.154 60.898 148.181C60.897 148.208 60.905 148.235 60.921 148.257C60.937 148.278 60.96 148.294 60.987 148.3C62.877 148.701 64.759 149.133 66.632 149.597C71.817 150.881 76.994 152.199 82.163 153.549C83.256 153.837 85.711 154.737 89.527 156.251C89.83 156.372 89.96 156.271 89.915 155.948L89.862 155.505C89.837 155.323 89.762 155.151 89.646 155.009C89.53 154.867 89.377 154.761 89.205 154.701C84.394 153.036 79.402 150.943 74.468 149.854C70.013 148.868 65.582 147.666 61.107 146.792C59.963 146.566 58.823 146.317 57.685 146.046C57.621 146.03 57.576 146.053 57.548 146.117L57.499 146.229C57.491 146.251 57.497 146.266 57.519 146.274C58.387 146.618 60.553 147.045 61.454 147.807C61.614 147.942 61.59 148.02 61.384 148.039Z" fill="white"/>
</svg>
